<?xml version="1.0" encoding="UTF-8" standalone="no"?>
<!-- Created with Inkscape (http://www.inkscape.org/) -->

<svg
   xmlns:dc="http://purl.org/dc/elements/1.1/"
   xmlns:cc="http://creativecommons.org/ns#"
   xmlns:rdf="http://www.w3.org/1999/02/22-rdf-syntax-ns#"
   xmlns:svg="http://www.w3.org/2000/svg"
   xmlns="http://www.w3.org/2000/svg"
   xmlns:xlink="http://www.w3.org/1999/xlink"
   xmlns:sodipodi="http://sodipodi.sourceforge.net/DTD/sodipodi-0.dtd"
   xmlns:inkscape="http://www.inkscape.org/namespaces/inkscape"
   version="1.1"
   width="1024"
   height="1024"
   id="svg2"
   inkscape:version="0.48.3.1 r9886"
   sodipodi:docname="path.svg">
  <sodipodi:namedview
     pagecolor="#ffffff"
     bordercolor="#666666"
     borderopacity="1"
     objecttolerance="10"
     gridtolerance="10"
     guidetolerance="10"
     inkscape:pageopacity="0"
     inkscape:pageshadow="2"
     inkscape:window-width="1379"
     inkscape:window-height="983"
     id="namedview3037"
     showgrid="false"
     inkscape:zoom="0.4609375"
     inkscape:cx="566.89812"
     inkscape:cy="371.2165"
     inkscape:window-x="0"
     inkscape:window-y="24"
     inkscape:window-maximized="0"
     inkscape:current-layer="layer1" />
  <defs
     id="defs4" />
  <metadata
     id="metadata7">
    <rdf:RDF>
      <cc:Work
         rdf:about="">
        <dc:format>image/svg+xml</dc:format>
        <dc:type
           rdf:resource="http://purl.org/dc/dcmitype/StillImage" />
        <dc:title></dc:title>
      </cc:Work>
    </rdf:RDF>
  </metadata>
  <g
     transform="translate(0,-28.362183)"
     id="layer1">
    <image
       xlink:href="file:///home/torandi/dev/fubar_3d_engine/data/levels/default/map.png"
       x="2.2857139"
       y="26.076464"
       width="1024"
       height="1024"
       id="image3063" />
    <path
       style="fill:none;stroke:#000000;stroke-width:1px;stroke-linecap:butt;stroke-linejoin:miter;stroke-opacity:1"
       d="M 800.54237,785.35593 C 719.30808,863.78755 634.02289,937.80001 490.30509,948.0678 60.783408,957.90652 280.69873,837.97285 266.84746,737.62711 243.82184,669.17924 217.4661,625.30226 273.35593,498.98305 311.41615,410.41037 347.37609,313.43657 379.66102,201.76271 461.7852,-0.67736065 631.64964,148.38585 579.25424,256 l -67.25423,199.59322 c -33.55229,90.19097 -94.97584,151.91287 -99.79662,219.11864 -31.93463,63.25083 52.3708,205.60322 106.30508,65.08475 l 88.94916,-275.52542 c 23.78561,-79.7645 74.6921,-181.47625 121.49152,-279.86441 64.13026,-130.25418 215.06273,-75.15162 145.35594,80.27119 -16.34364,91.26304 -120.00673,138.19161 -136.67797,253.83051 22.87451,90.12162 138.96755,127.34941 62.91525,266.84745 z"
       id="path3153"
       inkscape:connector-curvature="0"
       transform="translate(0,28.362183)"
       sodipodi:nodetypes="cccccccccccccc" />
  </g>
</svg>
