<?xml version="1.0" encoding="UTF-8" standalone="no"?>
<!-- Created with Inkscape (http://www.inkscape.org/) -->

<svg
   xmlns:dc="http://purl.org/dc/elements/1.1/"
   xmlns:cc="http://creativecommons.org/ns#"
   xmlns:rdf="http://www.w3.org/1999/02/22-rdf-syntax-ns#"
   xmlns:svg="http://www.w3.org/2000/svg"
   xmlns="http://www.w3.org/2000/svg"
   xmlns:xlink="http://www.w3.org/1999/xlink"
   version="1.1"
   width="1024"
   height="1024"
   id="svg2">
  <defs
     id="defs4" />
  <metadata
     id="metadata7">
    <rdf:RDF>
      <cc:Work
         rdf:about="">
        <dc:format>image/svg+xml</dc:format>
        <dc:type
           rdf:resource="http://purl.org/dc/dcmitype/StillImage" />
        <dc:title></dc:title>
      </cc:Work>
    </rdf:RDF>
  </metadata>
  <g
     transform="translate(0,-28.362183)"
     id="layer1">
    <image
       xlink:href="file:///home/torandi/dev/fubar_3d_engine/data/levels/default/map.png"
       x="2.2857139"
       y="26.076464"
       width="1024"
       height="1024"
       id="image3063" />
    <path
       d="m 668.20339,845.01695 -70.50847,-31.45763 c -72.16678,-8.29075 -157.6985,-8.90225 -222.37289,40.1356 C 249.58595,819.24109 271.51705,752.51971 234.30508,714.84746 207.0297,687.07393 209.19102,669.11264 197.42373,646.50847 c 0.55263,-33.83666 -5.68054,-65.73453 33.62712,-110.64406 48.19593,-25.07189 112.29907,7.06248 165.9661,-193.08475 14.65951,-53.64495 17.55194,-72.68811 26.0339,-97.62712 21.13909,-59.1918 36.56857,-72.70681 52.06779,-86.77966 85.3784,-42.00144 114.64779,-11.86273 119.32204,49.89831 20.05877,82.24281 -76.00767,68.10411 -86.77966,145.35593 L 503.32203,436.0678 501.15254,512 c -5.65388,31.38091 -5.2738,61.15732 -56.40678,82.44068 -65.18905,12.72092 -89.16047,37.52669 -80.27118,93.28813 52.71978,98.87515 172.08245,81.31619 253.83051,43.38983 17.28379,-4.62872 29.34609,4.66653 62.91525,-43.38983 l 30.37288,-60.74576 c 19.88064,-52.49661 2.70591,-75.34891 -4.33899,-106.30508 -38.02342,-63.24734 -10.49761,-91.85511 10e-6,-162.71187 l 2.16949,-73.76271 c 4.3031,-83.14949 -77.13492,-73.86015 -86.77966,-130.16949 -0.41763,-31.83019 21.81395,-78.019284 95.45762,-58.576274 l 97.62712,41.220344 c 42.358,20.68734 38.58528,64.83956 47.72882,99.79661 l -43.38983,108.47457 -23.86441,104.1356 c 10.87916,30.73842 4.74138,59.34973 58.57627,95.45762 53.89696,166.46673 -82.68867,246.586 -186.57627,300.47458 z"
       transform="translate(0,28.362183)"
       id="path3125"
       style="fill:none;stroke:#000000;stroke-width:1px;stroke-linecap:butt;stroke-linejoin:miter;stroke-opacity:1" />
  </g>
</svg>
