# Blender v2.62 (sub 0) OBJ File: 'kanon6.blend'
# www.blender.org
mtllib canon/cart.mtl
o Wheels_Circle.005
v 2.059848 -1.527019 1.577114
v -1.847080 -1.527019 1.577114
v 2.059848 -1.527019 -1.571949
v -1.847080 -1.527019 -1.571949
v 2.059848 -1.727019 1.577114
v -1.847080 -1.727019 1.577114
v 2.059848 -1.727019 -1.571949
v -1.847080 -1.727019 -1.571949
v 1.812101 -1.431528 -1.597418
v 1.948152 -1.458590 -1.597418
v 2.063491 -1.535657 -1.597418
v 2.140558 -1.650996 -1.597418
v 2.167620 -1.787047 -1.597418
v 2.140558 -1.923099 -1.597418
v 2.063491 -2.038437 -1.597418
v 1.948152 -2.115504 -1.597418
v 1.812101 -2.142567 -1.597418
v 1.676050 -2.115504 -1.597418
v 1.560711 -2.038437 -1.597418
v 1.483644 -1.923099 -1.597418
v 1.456582 -1.787047 -1.597418
v 1.483644 -1.650996 -1.597418
v 1.560711 -1.535657 -1.597418
v 1.676050 -1.458590 -1.597418
v 1.812101 -1.431528 -1.702904
v 1.948152 -1.458590 -1.702904
v 2.063491 -1.535657 -1.702904
v 2.140558 -1.650996 -1.702904
v 2.167620 -1.787047 -1.702904
v 2.140558 -1.923099 -1.702904
v 2.063491 -2.038437 -1.702904
v 1.948152 -2.115504 -1.702904
v 1.812101 -2.142567 -1.702904
v 1.676050 -2.115504 -1.702904
v 1.560711 -2.038437 -1.702904
v 1.483644 -1.923099 -1.702904
v 1.456582 -1.787047 -1.702904
v 1.483644 -1.650996 -1.702904
v 1.560711 -1.535657 -1.702904
v 1.676050 -1.458590 -1.702904
v -1.187899 -1.431528 -1.597418
v -1.051847 -1.458590 -1.597418
v -0.936509 -1.535657 -1.597418
v -0.859442 -1.650996 -1.597418
v -0.832379 -1.787047 -1.597418
v -0.859442 -1.923099 -1.597418
v -0.936509 -2.038437 -1.597418
v -1.051847 -2.115504 -1.597418
v -1.187899 -2.142567 -1.597418
v -1.323950 -2.115504 -1.597418
v -1.439289 -2.038437 -1.597418
v -1.516356 -1.923099 -1.597418
v -1.543418 -1.787047 -1.597418
v -1.516356 -1.650996 -1.597418
v -1.439289 -1.535657 -1.597418
v -1.323950 -1.458590 -1.597418
v -1.187899 -1.431528 -1.702904
v -1.051847 -1.458590 -1.702904
v -0.936509 -1.535657 -1.702904
v -0.859442 -1.650996 -1.702904
v -0.832379 -1.787047 -1.702904
v -0.859442 -1.923099 -1.702904
v -0.936509 -2.038437 -1.702904
v -1.051847 -2.115504 -1.702904
v -1.187899 -2.142567 -1.702904
v -1.323950 -2.115504 -1.702904
v -1.439289 -2.038437 -1.702904
v -1.516356 -1.923099 -1.702904
v -1.543418 -1.787047 -1.702904
v -1.516356 -1.650996 -1.702904
v -1.439289 -1.535657 -1.702904
v -1.323950 -1.458590 -1.702904
v -1.187899 -1.431528 1.702582
v -1.051847 -1.458590 1.702582
v -0.936509 -1.535657 1.702582
v -0.859442 -1.650996 1.702582
v -0.832379 -1.787047 1.702582
v -0.859442 -1.923099 1.702582
v -0.936509 -2.038437 1.702582
v -1.051847 -2.115504 1.702582
v -1.187899 -2.142567 1.702582
v -1.323950 -2.115504 1.702582
v -1.439289 -2.038437 1.702582
v -1.516356 -1.923099 1.702582
v -1.543418 -1.787047 1.702582
v -1.516356 -1.650996 1.702582
v -1.439289 -1.535657 1.702582
v -1.323950 -1.458590 1.702582
v -1.187899 -1.431528 1.597095
v -1.051847 -1.458590 1.597095
v -0.936509 -1.535657 1.597095
v -0.859442 -1.650996 1.597095
v -0.832379 -1.787047 1.597095
v -0.859442 -1.923099 1.597095
v -0.936509 -2.038437 1.597095
v -1.051847 -2.115504 1.597095
v -1.187899 -2.142567 1.597095
v -1.323950 -2.115504 1.597095
v -1.439289 -2.038437 1.597095
v -1.516356 -1.923099 1.597095
v -1.543418 -1.787047 1.597095
v -1.516356 -1.650996 1.597095
v -1.439289 -1.535657 1.597095
v -1.323950 -1.458590 1.597095
v 1.812101 -1.431528 1.702582
v 1.948152 -1.458590 1.702582
v 2.063491 -1.535657 1.702582
v 2.140558 -1.650996 1.702582
v 2.167620 -1.787047 1.702582
v 2.140558 -1.923099 1.702582
v 2.063491 -2.038437 1.702582
v 1.948152 -2.115504 1.702582
v 1.812101 -2.142567 1.702582
v 1.676050 -2.115504 1.702582
v 1.560711 -2.038437 1.702582
v 1.483644 -1.923099 1.702582
v 1.456582 -1.787047 1.702582
v 1.483644 -1.650996 1.702582
v 1.560711 -1.535657 1.702582
v 1.676050 -1.458590 1.702582
v 1.812101 -1.431528 1.597095
v 1.948152 -1.458590 1.597095
v 2.063491 -1.535657 1.597095
v 2.140558 -1.650996 1.597095
v 2.167620 -1.787047 1.597095
v 2.140558 -1.923099 1.597095
v 2.063491 -2.038437 1.597095
v 1.948152 -2.115504 1.597095
v 1.812101 -2.142567 1.597095
v 1.676050 -2.115504 1.597095
v 1.560711 -2.038437 1.597095
v 1.483644 -1.923099 1.597095
v 1.456582 -1.787047 1.597095
v 1.483644 -1.650996 1.597095
v 1.560711 -1.535657 1.597095
v 1.676050 -1.458590 1.597095
vt 0.732470 0.021691
vt 0.731781 0.246365
vt 0.912873 0.246920
vt 0.913562 0.022246
vt 0.731092 0.021691
vt 0.550000 0.022246
vt 0.550689 0.246920
vt 0.913562 0.246365
vt 0.925063 0.246400
vt 0.925753 0.021726
vt 0.914251 0.021691
vt 0.925753 0.246365
vt 0.937254 0.246400
vt 0.937943 0.021726
vt 0.926442 0.021691
vt 0.949444 0.202818
vt 0.937943 0.202853
vt 0.938499 0.383945
vt 0.950000 0.383909
vt 0.938499 0.202818
vt 0.950000 0.202782
vt 0.949444 0.021691
vt 0.197318 0.043460
vt 0.197318 0.074034
vt 0.157885 0.074034
vt 0.157885 0.043460
vt 0.230748 0.043460
vt 0.230748 0.074034
vt 0.105657 0.043460
vt 0.145090 0.043460
vt 0.145090 0.074034
vt 0.105657 0.074034
vt 0.066224 0.043460
vt 0.032794 0.043460
vt 0.032794 0.074034
vt 0.066224 0.074034
vt 0.238881 0.043460
vt 0.272311 0.043460
vt 0.272311 0.074034
vt 0.238881 0.074034
vt 0.118451 0.043460
vt 0.085022 0.043460
vt 0.085022 0.074034
vt 0.118451 0.074034
vt 0.178520 0.043460
vt 0.178520 0.074034
vn 0.000000 1.000000 -0.000000
vn 0.000000 -1.000000 0.000000
vn -0.000000 0.000000 1.000000
vn 0.000000 0.000000 -1.000000
vn -1.000000 0.000000 -0.000000
vn 1.000000 0.000000 -0.000000
vn -0.195089 0.980785 0.000000
vn -0.555571 -0.831469 0.000000
vn 0.980785 0.195091 0.000000
vn -0.831469 -0.555571 0.000000
vn 0.980785 -0.195091 0.000000
vn -0.980785 -0.195090 0.000000
vn 0.831470 -0.555570 0.000000
vn -0.980785 0.195090 0.000000
vn 0.555570 -0.831470 0.000000
vn 0.195090 0.980785 0.000000
vn -0.831470 0.555570 0.000000
vn 0.195091 -0.980785 0.000000
vn 0.555570 0.831470 0.000000
vn -0.555571 0.831469 0.000000
vn -0.195091 -0.980785 0.000000
vn 0.831470 0.555570 0.000000
vn -0.195090 0.980785 0.000000
vn -0.555570 -0.831470 0.000000
vn 0.980785 0.195090 0.000000
vn 0.980785 -0.195090 0.000000
vn 0.831469 -0.555571 0.000000
vn 0.555571 -0.831469 0.000000
vn 0.555571 0.831469 0.000000
vn -0.555570 0.831470 0.000000
vn 0.831469 0.555571 0.000000
vn 0.555570 -0.831469 0.000000
vn 0.555570 0.831469 0.000000
usemtl Material.005_checkered.png
s off
f 2/1/1 1/2/1 3/3/1 4/4/1
f 7/5/2 5/6/2 6/7/2 8/2/2
f 5/8/3 1/9/3 2/10/3 6/11/3
f 3/12/4 7/13/4 8/14/4 4/15/4
f 4/16/5 8/17/5 6/18/5 2/19/5
f 1/20/6 5/21/6 7/22/6 3/14/6
f 40/23/7 24/24/7 9/25/7 25/26/7
f 35/27/8 34/23/8 18/24/8 19/28/8
f 29/29/9 28/30/9 12/31/9 13/32/9
f 36/33/10 35/34/10 19/35/10 20/36/10
f 30/33/11 29/29/11 13/32/11 14/36/11
f 37/29/12 36/33/12 20/36/12 21/32/12
f 31/37/13 30/38/13 14/39/13 15/40/13
f 38/30/14 37/29/14 21/32/14 22/31/14
f 32/41/15 31/42/15 15/43/15 16/44/15
f 26/41/16 25/26/16 9/25/16 10/44/16
f 39/45/17 38/30/17 22/31/17 23/46/17
f 33/26/18 32/41/18 16/44/18 17/25/18
f 27/42/19 26/41/19 10/44/19 11/43/19
f 40/23/20 39/27/20 23/28/20 24/24/20
f 34/23/21 33/26/21 17/25/21 18/24/21
f 28/30/22 27/45/22 11/46/22 12/31/22
f 72/23/23 56/24/23 41/25/23 57/26/23
f 67/27/24 66/23/24 50/24/24 51/28/24
f 61/29/25 60/30/25 44/31/25 45/32/25
f 68/33/10 67/34/10 51/35/10 52/36/10
f 62/33/26 61/29/26 45/32/26 46/36/26
f 69/29/12 68/33/12 52/36/12 53/32/12
f 63/37/27 62/38/27 46/39/27 47/40/27
f 70/30/14 69/29/14 53/32/14 54/31/14
f 64/41/28 63/42/28 47/43/28 48/44/28
f 58/41/16 57/26/16 41/25/16 42/44/16
f 71/45/17 70/30/17 54/31/17 55/46/17
f 65/26/18 64/41/18 48/44/18 49/25/18
f 59/42/29 58/41/29 42/44/29 43/43/29
f 72/23/30 71/27/30 55/28/30 56/24/30
f 66/23/21 65/26/21 49/25/21 50/24/21
f 60/30/31 59/45/31 43/46/31 44/31/31
f 104/23/23 88/24/23 73/25/23 89/26/23
f 99/27/24 98/23/24 82/24/24 83/28/24
f 93/29/25 92/30/25 76/31/25 77/32/25
f 100/33/10 99/34/10 83/35/10 84/36/10
f 94/33/26 93/29/26 77/32/26 78/36/26
f 101/29/12 100/33/12 84/36/12 85/32/12
f 95/37/27 94/38/27 78/39/27 79/40/27
f 102/30/14 101/29/14 85/32/14 86/31/14
f 96/41/28 95/42/28 79/43/28 80/44/28
f 90/41/16 89/26/16 73/25/16 74/44/16
f 103/45/17 102/30/17 86/31/17 87/46/17
f 97/26/18 96/41/18 80/44/18 81/25/18
f 91/42/29 90/41/29 74/44/29 75/43/29
f 104/23/30 103/27/30 87/28/30 88/24/30
f 98/23/21 97/26/21 81/25/21 82/24/21
f 92/30/31 91/45/31 75/46/31 76/31/31
f 136/23/23 120/24/23 105/25/23 121/26/23
f 131/27/24 130/23/24 114/24/24 115/28/24
f 125/29/9 124/30/9 108/31/9 109/32/9
f 132/33/10 131/34/10 115/35/10 116/36/10
f 126/33/11 125/29/11 109/32/11 110/36/11
f 133/29/12 132/33/12 116/36/12 117/32/12
f 127/37/13 126/38/13 110/39/13 111/40/13
f 134/30/14 133/29/14 117/32/14 118/31/14
f 128/41/32 127/42/32 111/43/32 112/44/32
f 122/41/16 121/26/16 105/25/16 106/44/16
f 135/45/17 134/30/17 118/31/17 119/46/17
f 129/26/18 128/41/18 112/44/18 113/25/18
f 123/42/33 122/41/33 106/44/33 107/43/33
f 136/23/30 135/27/30 119/28/30 120/24/30
f 130/23/21 129/26/21 113/25/21 114/24/21
f 124/30/22 123/45/22 107/46/22 108/31/22
